# xmcd
# 
# Track frame offsets:
#     150
#     20902
#     39772
#     55305
#     71950
#     92435
#     109160
#     128682
#     144477
#     159872
#     178960
#     195125
#     221552
# 
# Disc length: 2960
# 
# Revision: 15
# Processed by: cddbd v1.5.1PL2 Copyright (c) Steve Scherf et al.
# Submitted via: BonkEnc v1.0beta3
# 
DISCID=b10b8e0d
DTITLE=孫燕姿 - 自選集
DYEAR=2002
DGENRE=Pop
TTITLE0=Hey Jude
TTITLE1=Silent All These Years
TTITLE2=橄欖樹
TTITLE3=沒時間
TTITLE4=Sometimes Love Just Ain't Enough
TTITLE5=原來?什麼都不要
TTITLE6=That I Would Be Good
TTITLE7=Venus
TTITLE8=Someone
TTITLE9=天空
TTITLE10=就是這樣
TTITLE11=Up2u
TTITLE12=Data Track
EXTD=YEAR: 2002
EXTT0=
EXTT1=
EXTT2=
EXTT3=
EXTT4=
EXTT5=
EXTT6=
EXTT7=
EXTT8=
EXTT9=
EXTT10=
EXTT11=
EXTT12=
PLAYORDER=
